<?xml version="1.0" encoding="UTF-8" standalone="no"?>
<!DOCTYPE svg PUBLIC "-//W3C//DTD SVG 1.1//EN"
 "http://www.w3.org/Graphics/SVG/1.1/DTD/svg11.dtd">
<!-- Generated by graphviz version 8.1.0 (0)
 -->
<!-- Pages: 1 -->
<svg width="101pt" height="188pt"
 viewBox="0.00 0.00 100.57 188.00" xmlns="http://www.w3.org/2000/svg" xmlns:xlink="http://www.w3.org/1999/xlink">
<g id="graph0" class="graph" transform="scale(1 1) rotate(0) translate(4 184)">
<polygon fill="white" stroke="none" points="-4,4 -4,-184 96.57,-184 96.57,4 -4,4"/>
<!-- C -->
<g id="node1" class="node">
<title>C</title>
<ellipse fill="none" stroke="black" cx="53" cy="-18" rx="27" ry="18"/>
<text text-anchor="middle" x="53" y="-12.95" font-family="Times,serif" font-size="14.00">C</text>
</g>
<!-- G -->
<g id="node2" class="node">
<title>G</title>
<ellipse fill="none" stroke="black" cx="27" cy="-162" rx="27" ry="18"/>
<text text-anchor="middle" x="27" y="-156.95" font-family="Times,serif" font-size="14.00">G</text>
</g>
<!-- G&#45;&gt;C -->
<g id="edge2" class="edge">
<title>G&#45;&gt;C</title>
<path fill="none" stroke="black" d="M21.15,-144.22C15.72,-126.04 9.51,-96.37 17,-72 20.22,-61.54 26.28,-51.29 32.53,-42.63"/>
<polygon fill="black" stroke="black" points="35.9,-44.98 39.25,-34.93 30.37,-40.7 35.9,-44.98"/>
</g>
<!-- P -->
<g id="node3" class="node">
<title>P</title>
<ellipse fill="none" stroke="black" cx="53" cy="-90" rx="27" ry="18"/>
<text text-anchor="middle" x="53" y="-84.95" font-family="Times,serif" font-size="14.00">P</text>
</g>
<!-- G&#45;&gt;P -->
<g id="edge1" class="edge">
<title>G&#45;&gt;P</title>
<path fill="none" stroke="black" d="M33.29,-144.05C36.2,-136.23 39.72,-126.75 42.98,-117.98"/>
<polygon fill="black" stroke="black" points="46.56,-119.38 46.76,-108.79 40,-116.94 46.56,-119.38"/>
</g>
<!-- P&#45;&gt;C -->
<g id="edge3" class="edge">
<title>P&#45;&gt;C</title>
<path fill="none" stroke="black" d="M53,-71.7C53,-64.24 53,-55.32 53,-46.97"/>
<polygon fill="black" stroke="black" points="56.5,-47.1 53,-37.1 49.5,-47.1 56.5,-47.1"/>
</g>
<!-- Unobserved_0 -->
<g id="node4" class="node">
<title>Unobserved_0</title>
<ellipse fill="black" stroke="black" cx="78" cy="-162" rx="1.8" ry="1.8"/>
</g>
<!-- Unobserved_0&#45;&gt;C -->
<g id="edge5" class="edge">
<title>Unobserved_0&#45;&gt;C</title>
<path fill="none" stroke="black" stroke-dasharray="5,2" d="M78.39,-160.1C81.34,-153.12 99.8,-107.12 89,-72 85.78,-61.54 79.72,-51.29 73.47,-42.63"/>
<polygon fill="black" stroke="black" points="75.63,-40.7 66.75,-34.93 70.1,-44.98 75.63,-40.7"/>
</g>
<!-- Unobserved_0&#45;&gt;P -->
<g id="edge4" class="edge">
<title>Unobserved_0&#45;&gt;P</title>
<path fill="none" stroke="black" stroke-dasharray="5,2" d="M77.57,-159.79C75.77,-154.76 68.75,-135.09 62.67,-118.07"/>
<polygon fill="black" stroke="black" points="65.72,-117.2 59.06,-108.96 59.13,-119.56 65.72,-117.2"/>
</g>
</g>
</svg>