<?xml version="1.0" encoding="UTF-8" standalone="no"?>
<!DOCTYPE svg PUBLIC "-//W3C//DTD SVG 1.1//EN"
 "http://www.w3.org/Graphics/SVG/1.1/DTD/svg11.dtd">
<!-- Generated by graphviz version 8.1.0 (0)
 -->
<!-- Pages: 1 -->
<svg width="89pt" height="188pt"
 viewBox="0.00 0.00 89.00 188.00" xmlns="http://www.w3.org/2000/svg" xmlns:xlink="http://www.w3.org/1999/xlink">
<g id="graph0" class="graph" transform="scale(1 1) rotate(0) translate(4 184)">
<polygon fill="white" stroke="none" points="-4,4 -4,-184 85,-184 85,4 -4,4"/>
<!-- P -->
<g id="node1" class="node">
<title>P</title>
<ellipse fill="none" stroke="black" cx="27" cy="-90" rx="27" ry="18"/>
<text text-anchor="middle" x="27" y="-84.95" font-family="Times,serif" font-size="14.00">P</text>
</g>
<!-- C -->
<g id="node2" class="node">
<title>C</title>
<ellipse fill="none" stroke="black" cx="54" cy="-18" rx="27" ry="18"/>
<text text-anchor="middle" x="54" y="-12.95" font-family="Times,serif" font-size="14.00">C</text>
</g>
<!-- P&#45;&gt;C -->
<g id="edge2" class="edge">
<title>P&#45;&gt;C</title>
<path fill="none" stroke="black" d="M33.54,-72.05C36.55,-64.23 40.21,-54.75 43.59,-45.98"/>
<polygon fill="black" stroke="black" points="47.19,-47.38 47.52,-36.79 40.66,-44.86 47.19,-47.38"/>
</g>
<!-- G -->
<g id="node3" class="node">
<title>G</title>
<ellipse fill="none" stroke="black" cx="27" cy="-162" rx="27" ry="18"/>
<text text-anchor="middle" x="27" y="-156.95" font-family="Times,serif" font-size="14.00">G</text>
</g>
<!-- G&#45;&gt;P -->
<g id="edge1" class="edge">
<title>G&#45;&gt;P</title>
<path fill="none" stroke="black" d="M27,-143.7C27,-136.24 27,-127.32 27,-118.97"/>
<polygon fill="black" stroke="black" points="30.5,-119.1 27,-109.1 23.5,-119.1 30.5,-119.1"/>
</g>
<!-- Unobserved_0 -->
<g id="node4" class="node">
<title>Unobserved_0</title>
<ellipse fill="black" stroke="black" cx="78" cy="-162" rx="1.8" ry="1.8"/>
</g>
<!-- Unobserved_0&#45;&gt;P -->
<g id="edge3" class="edge">
<title>Unobserved_0&#45;&gt;P</title>
<path fill="none" stroke="black" stroke-dasharray="5,2" d="M77.28,-160.01C73.73,-155.14 57.79,-133.25 44.79,-115.42"/>
<polygon fill="black" stroke="black" points="47.06,-113.59 38.34,-107.57 41.4,-117.71 47.06,-113.59"/>
</g>
<!-- Unobserved_0&#45;&gt;C -->
<g id="edge4" class="edge">
<title>Unobserved_0&#45;&gt;C</title>
<path fill="none" stroke="black" stroke-dasharray="5,2" d="M77.79,-159.75C76.46,-151.82 69.06,-107.84 63,-72 61.62,-63.87 60.13,-55.04 58.75,-46.96"/>
<polygon fill="black" stroke="black" points="62.05,-46.46 56.92,-37.18 55.15,-47.63 62.05,-46.46"/>
</g>
</g>
</svg>