<?xml version="1.0" encoding="UTF-8" standalone="no"?>
<!DOCTYPE svg PUBLIC "-//W3C//DTD SVG 1.1//EN"
 "http://www.w3.org/Graphics/SVG/1.1/DTD/svg11.dtd">
<!-- Generated by graphviz version 8.1.0 (0)
 -->
<!-- Pages: 1 -->
<svg width="206pt" height="116pt"
 viewBox="0.00 0.00 206.00 116.00" xmlns="http://www.w3.org/2000/svg" xmlns:xlink="http://www.w3.org/1999/xlink">
<g id="graph0" class="graph" transform="scale(1 1) rotate(0) translate(4 112)">
<polygon fill="white" stroke="none" points="-4,4 -4,-112 202,-112 202,4 -4,4"/>
<!-- F -->
<g id="node1" class="node">
<title>F</title>
<ellipse fill="none" stroke="black" cx="45" cy="-18" rx="27" ry="18"/>
<text text-anchor="middle" x="45" y="-12.95" font-family="Times,serif" font-size="14.00">F</text>
</g>
<!-- M -->
<g id="node2" class="node">
<title>M</title>
<ellipse fill="none" stroke="black" cx="99" cy="-90" rx="27" ry="18"/>
<text text-anchor="middle" x="99" y="-84.95" font-family="Times,serif" font-size="14.00">M</text>
</g>
<!-- M&#45;&gt;F -->
<g id="edge4" class="edge">
<title>M&#45;&gt;F</title>
<path fill="none" stroke="black" d="M87.02,-73.46C80.09,-64.49 71.24,-53.02 63.45,-42.92"/>
<polygon fill="black" stroke="black" points="65.83,-41.27 56.95,-35.49 60.29,-45.55 65.83,-41.27"/>
</g>
<!-- H1 -->
<g id="node5" class="node">
<title>H1</title>
<ellipse fill="none" stroke="black" cx="135" cy="-18" rx="27" ry="18"/>
<text text-anchor="middle" x="135" y="-12.95" font-family="Times,serif" font-size="14.00">H1</text>
</g>
<!-- M&#45;&gt;H1 -->
<g id="edge3" class="edge">
<title>M&#45;&gt;H1</title>
<path fill="none" stroke="black" d="M107.35,-72.76C111.62,-64.46 116.92,-54.15 121.73,-44.79"/>
<polygon fill="black" stroke="black" points="125.23,-46.64 126.7,-36.15 119.01,-43.44 125.23,-46.64"/>
</g>
<!-- H0 -->
<g id="node3" class="node">
<title>H0</title>
<ellipse fill="none" stroke="black" cx="171" cy="-90" rx="27" ry="18"/>
<text text-anchor="middle" x="171" y="-84.95" font-family="Times,serif" font-size="14.00">H0</text>
</g>
<!-- H0&#45;&gt;H1 -->
<g id="edge1" class="edge">
<title>H0&#45;&gt;H1</title>
<path fill="none" stroke="black" d="M162.65,-72.76C158.38,-64.46 153.08,-54.15 148.27,-44.79"/>
<polygon fill="black" stroke="black" points="150.99,-43.44 143.3,-36.15 144.77,-46.64 150.99,-43.44"/>
</g>
<!-- T -->
<g id="node4" class="node">
<title>T</title>
<ellipse fill="none" stroke="black" cx="27" cy="-90" rx="27" ry="18"/>
<text text-anchor="middle" x="27" y="-84.95" font-family="Times,serif" font-size="14.00">T</text>
</g>
<!-- T&#45;&gt;F -->
<g id="edge2" class="edge">
<title>T&#45;&gt;F</title>
<path fill="none" stroke="black" d="M31.36,-72.05C33.35,-64.32 35.75,-54.96 37.99,-46.27"/>
<polygon fill="black" stroke="black" points="41.58,-47.35 40.68,-36.79 34.8,-45.6 41.58,-47.35"/>
</g>
</g>
</svg>