<?xml version="1.0" encoding="UTF-8" standalone="no"?>
<!DOCTYPE svg PUBLIC "-//W3C//DTD SVG 1.1//EN"
 "http://www.w3.org/Graphics/SVG/1.1/DTD/svg11.dtd">
<!-- Generated by graphviz version 8.1.0 (0)
 -->
<!-- Pages: 1 -->
<svg width="206pt" height="116pt"
 viewBox="0.00 0.00 206.00 116.00" xmlns="http://www.w3.org/2000/svg" xmlns:xlink="http://www.w3.org/1999/xlink">
<g id="graph0" class="graph" transform="scale(1 1) rotate(0) translate(4 112)">
<polygon fill="white" stroke="none" points="-4,4 -4,-112 202,-112 202,4 -4,4"/>
<!-- T -->
<g id="node1" class="node">
<title>T</title>
<ellipse fill="none" stroke="black" cx="27" cy="-90" rx="27" ry="18"/>
<text text-anchor="middle" x="27" y="-84.95" font-family="Times,serif" font-size="14.00">T</text>
</g>
<!-- F -->
<g id="node2" class="node">
<title>F</title>
<ellipse fill="none" stroke="black" cx="45" cy="-18" rx="27" ry="18"/>
<text text-anchor="middle" x="45" y="-12.95" font-family="Times,serif" font-size="14.00">F</text>
</g>
<!-- T&#45;&gt;F -->
<g id="edge2" class="edge">
<title>T&#45;&gt;F</title>
<path fill="none" stroke="black" d="M31.36,-72.05C33.35,-64.32 35.75,-54.96 37.99,-46.27"/>
<polygon fill="black" stroke="black" points="41.58,-47.35 40.68,-36.79 34.8,-45.6 41.58,-47.35"/>
</g>
<!-- H0 -->
<g id="node3" class="node">
<title>H0</title>
<ellipse fill="none" stroke="black" cx="171" cy="-90" rx="27" ry="18"/>
<text text-anchor="middle" x="171" y="-84.95" font-family="Times,serif" font-size="14.00">H0</text>
</g>
<!-- H1 -->
<g id="node5" class="node">
<title>H1</title>
<ellipse fill="none" stroke="black" cx="153" cy="-18" rx="27" ry="18"/>
<text text-anchor="middle" x="153" y="-12.95" font-family="Times,serif" font-size="14.00">H1</text>
</g>
<!-- H0&#45;&gt;H1 -->
<g id="edge1" class="edge">
<title>H0&#45;&gt;H1</title>
<path fill="none" stroke="black" d="M166.64,-72.05C164.65,-64.32 162.25,-54.96 160.01,-46.27"/>
<polygon fill="black" stroke="black" points="163.2,-45.6 157.32,-36.79 156.42,-47.35 163.2,-45.6"/>
</g>
<!-- M -->
<g id="node4" class="node">
<title>M</title>
<ellipse fill="none" stroke="black" cx="99" cy="-90" rx="27" ry="18"/>
<text text-anchor="middle" x="99" y="-84.95" font-family="Times,serif" font-size="14.00">M</text>
</g>
<!-- M&#45;&gt;F -->
<g id="edge4" class="edge">
<title>M&#45;&gt;F</title>
<path fill="none" stroke="black" d="M87.02,-73.46C80.09,-64.49 71.24,-53.02 63.45,-42.92"/>
<polygon fill="black" stroke="black" points="65.83,-41.27 56.95,-35.49 60.29,-45.55 65.83,-41.27"/>
</g>
<!-- M&#45;&gt;H1 -->
<g id="edge3" class="edge">
<title>M&#45;&gt;H1</title>
<path fill="none" stroke="black" d="M110.98,-73.46C117.91,-64.49 126.76,-53.02 134.55,-42.92"/>
<polygon fill="black" stroke="black" points="137.71,-45.55 141.05,-35.49 132.17,-41.27 137.71,-45.55"/>
</g>
</g>
</svg>