<?xml version="1.0" encoding="UTF-8" standalone="no"?>
<!DOCTYPE svg PUBLIC "-//W3C//DTD SVG 1.1//EN"
 "http://www.w3.org/Graphics/SVG/1.1/DTD/svg11.dtd">
<!-- Generated by graphviz version 8.1.0 (0)
 -->
<!-- Pages: 1 -->
<svg width="134pt" height="156pt"
 viewBox="0.00 0.00 134.00 155.60" xmlns="http://www.w3.org/2000/svg" xmlns:xlink="http://www.w3.org/1999/xlink">
<g id="graph0" class="graph" transform="scale(1 1) rotate(0) translate(4 151.6)">
<polygon fill="white" stroke="none" points="-4,4 -4,-151.6 130,-151.6 130,4 -4,4"/>
<!-- N -->
<g id="node1" class="node">
<title>N</title>
<ellipse fill="none" stroke="black" cx="27" cy="-90" rx="27" ry="18"/>
<text text-anchor="middle" x="27" y="-84.95" font-family="Times,serif" font-size="14.00">N</text>
</g>
<!-- E -->
<g id="node3" class="node">
<title>E</title>
<ellipse fill="none" stroke="black" cx="63" cy="-18" rx="27" ry="18"/>
<text text-anchor="middle" x="63" y="-12.95" font-family="Times,serif" font-size="14.00">E</text>
</g>
<!-- N&#45;&gt;E -->
<g id="edge2" class="edge">
<title>N&#45;&gt;E</title>
<path fill="none" stroke="black" d="M35.35,-72.76C39.62,-64.46 44.92,-54.15 49.73,-44.79"/>
<polygon fill="black" stroke="black" points="53.23,-46.64 54.7,-36.15 47.01,-43.44 53.23,-46.64"/>
</g>
<!-- M -->
<g id="node2" class="node">
<title>M</title>
<ellipse fill="none" stroke="black" cx="99" cy="-90" rx="27" ry="18"/>
<text text-anchor="middle" x="99" y="-84.95" font-family="Times,serif" font-size="14.00">M</text>
</g>
<!-- M&#45;&gt;E -->
<g id="edge1" class="edge">
<title>M&#45;&gt;E</title>
<path fill="none" stroke="black" d="M90.65,-72.76C86.38,-64.46 81.08,-54.15 76.27,-44.79"/>
<polygon fill="black" stroke="black" points="78.99,-43.44 71.3,-36.15 72.77,-46.64 78.99,-43.44"/>
</g>
<!-- Unobserved_0 -->
<g id="node4" class="node">
<title>Unobserved_0</title>
<ellipse fill="black" stroke="black" cx="63" cy="-145.8" rx="1.8" ry="1.8"/>
</g>
<!-- Unobserved_0&#45;&gt;N -->
<g id="edge4" class="edge">
<title>Unobserved_0&#45;&gt;N</title>
<path fill="none" stroke="black" stroke-dasharray="5,2" d="M62.38,-143.87C60.05,-140.4 51.65,-127.83 43.61,-115.82"/>
<polygon fill="black" stroke="black" points="46.11,-114.27 37.64,-107.91 40.3,-118.16 46.11,-114.27"/>
</g>
<!-- Unobserved_0&#45;&gt;M -->
<g id="edge3" class="edge">
<title>Unobserved_0&#45;&gt;M</title>
<path fill="none" stroke="black" stroke-dasharray="5,2" d="M63.62,-143.87C65.95,-140.4 74.35,-127.83 82.39,-115.82"/>
<polygon fill="black" stroke="black" points="85.7,-118.16 88.36,-107.91 79.89,-114.27 85.7,-118.16"/>
</g>
</g>
</svg>