<?xml version="1.0" encoding="UTF-8" standalone="no"?>
<!DOCTYPE svg PUBLIC "-//W3C//DTD SVG 1.1//EN"
 "http://www.w3.org/Graphics/SVG/1.1/DTD/svg11.dtd">
<!-- Generated by graphviz version 8.1.0 (0)
 -->
<!-- Pages: 1 -->
<svg width="156pt" height="116pt"
 viewBox="0.00 0.00 156.00 116.00" xmlns="http://www.w3.org/2000/svg" xmlns:xlink="http://www.w3.org/1999/xlink">
<g id="graph0" class="graph" transform="scale(1 1) rotate(0) translate(4 112)">
<polygon fill="white" stroke="none" points="-4,4 -4,-112 152,-112 152,4 -4,4"/>
<!-- T -->
<g id="node1" class="node">
<title>T</title>
<ellipse fill="none" stroke="black" cx="27" cy="-90" rx="27" ry="18"/>
<text text-anchor="middle" x="27" y="-84.95" font-family="Times,serif" font-size="14.00">T</text>
</g>
<!-- F -->
<g id="node2" class="node">
<title>F</title>
<ellipse fill="none" stroke="black" cx="38" cy="-18" rx="27" ry="18"/>
<text text-anchor="middle" x="38" y="-12.95" font-family="Times,serif" font-size="14.00">F</text>
</g>
<!-- T&#45;&gt;F -->
<g id="edge2" class="edge">
<title>T&#45;&gt;F</title>
<path fill="none" stroke="black" d="M29.72,-71.7C30.89,-64.24 32.29,-55.32 33.61,-46.97"/>
<polygon fill="black" stroke="black" points="37.22,-47.53 35.31,-37.1 30.3,-46.44 37.22,-47.53"/>
</g>
<!-- H0 -->
<g id="node3" class="node">
<title>H0</title>
<ellipse fill="none" stroke="black" cx="121" cy="-90" rx="27" ry="18"/>
<text text-anchor="middle" x="121" y="-84.95" font-family="Times,serif" font-size="14.00">H0</text>
</g>
<!-- H1 -->
<g id="node4" class="node">
<title>H1</title>
<ellipse fill="none" stroke="black" cx="115" cy="-18" rx="27" ry="18"/>
<text text-anchor="middle" x="115" y="-12.95" font-family="Times,serif" font-size="14.00">H1</text>
</g>
<!-- H0&#45;&gt;H1 -->
<g id="edge1" class="edge">
<title>H0&#45;&gt;H1</title>
<path fill="none" stroke="black" d="M119.52,-71.7C118.88,-64.24 118.11,-55.32 117.4,-46.97"/>
<polygon fill="black" stroke="black" points="120.81,-46.77 116.47,-37.1 113.83,-47.37 120.81,-46.77"/>
</g>
<!-- Unobserved_0 -->
<g id="node5" class="node">
<title>Unobserved_0</title>
<ellipse fill="black" stroke="black" cx="74" cy="-90" rx="1.8" ry="1.8"/>
</g>
<!-- Unobserved_0&#45;&gt;F -->
<g id="edge3" class="edge">
<title>Unobserved_0&#45;&gt;F</title>
<path fill="none" stroke="black" stroke-dasharray="5,2" d="M73.49,-88.01C71.08,-83.32 60.52,-62.79 51.54,-45.33"/>
<polygon fill="black" stroke="black" points="54.2,-43.84 46.51,-36.55 47.97,-47.04 54.2,-43.84"/>
</g>
<!-- Unobserved_0&#45;&gt;H1 -->
<g id="edge4" class="edge">
<title>Unobserved_0&#45;&gt;H1</title>
<path fill="none" stroke="black" stroke-dasharray="5,2" d="M74.58,-88.01C77.37,-83.24 89.72,-62.15 100.05,-44.53"/>
<polygon fill="black" stroke="black" points="103.47,-46.62 105.5,-36.22 97.43,-43.08 103.47,-46.62"/>
</g>
</g>
</svg>