<?xml version="1.0" encoding="UTF-8" standalone="no"?>
<!DOCTYPE svg PUBLIC "-//W3C//DTD SVG 1.1//EN"
 "http://www.w3.org/Graphics/SVG/1.1/DTD/svg11.dtd">
<!-- Generated by graphviz version 8.1.0 (0)
 -->
<!-- Pages: 1 -->
<svg width="142pt" height="124pt"
 viewBox="0.00 0.00 142.00 124.00" xmlns="http://www.w3.org/2000/svg" xmlns:xlink="http://www.w3.org/1999/xlink">
<g id="graph0" class="graph" transform="scale(1 1) rotate(0) translate(4 120)">
<polygon fill="white" stroke="none" points="-4,4 -4,-120 138,-120 138,4 -4,4"/>
<!-- N -->
<g id="node1" class="node">
<title>N</title>
<ellipse fill="none" stroke="black" cx="27" cy="-94" rx="27" ry="18"/>
<text text-anchor="middle" x="27" y="-88.95" font-family="Times,serif" font-size="14.00">N</text>
</g>
<!-- E -->
<g id="node2" class="node">
<title>E</title>
<ellipse fill="none" stroke="black" cx="65" cy="-18" rx="27" ry="18"/>
<text text-anchor="middle" x="65" y="-12.95" font-family="Times,serif" font-size="14.00">E</text>
</g>
<!-- N&#45;&gt;E -->
<g id="edge1" class="edge">
<title>N&#45;&gt;E</title>
<path fill="none" stroke="black" d="M35.43,-76.58C40.21,-67.28 46.28,-55.45 51.68,-44.93"/>
<polygon fill="black" stroke="black" points="55.14,-46.87 56.59,-36.38 48.91,-43.67 55.14,-46.87"/>
</g>
<!-- M -->
<g id="node3" class="node">
<title>M</title>
<ellipse fill="none" stroke="black" cx="103" cy="-94" rx="27" ry="18"/>
<ellipse fill="none" stroke="black" cx="103" cy="-94" rx="31" ry="22"/>
<text text-anchor="middle" x="103" y="-88.95" font-family="Times,serif" font-size="14.00">M</text>
</g>
<!-- M&#45;&gt;E -->
<g id="edge2" class="edge">
<title>M&#45;&gt;E</title>
<path fill="none" stroke="black" d="M92.62,-72.78C88.21,-64.2 83.02,-54.09 78.33,-44.97"/>
<polygon fill="black" stroke="black" points="81.01,-43.51 73.33,-36.22 74.78,-46.71 81.01,-43.51"/>
</g>
</g>
</svg>