<?xml version="1.0" encoding="UTF-8" standalone="no"?>
<!DOCTYPE svg PUBLIC "-//W3C//DTD SVG 1.1//EN"
 "http://www.w3.org/Graphics/SVG/1.1/DTD/svg11.dtd">
<!-- Generated by graphviz version 8.1.0 (0)
 -->
<!-- Pages: 1 -->
<svg width="142pt" height="124pt"
 viewBox="0.00 0.00 142.00 124.00" xmlns="http://www.w3.org/2000/svg" xmlns:xlink="http://www.w3.org/1999/xlink">
<g id="graph0" class="graph" transform="scale(1 1) rotate(0) translate(4 120)">
<polygon fill="white" stroke="none" points="-4,4 -4,-120 138,-120 138,4 -4,4"/>
<!-- M -->
<g id="node1" class="node">
<title>M</title>
<ellipse fill="none" stroke="black" cx="31" cy="-94" rx="27" ry="18"/>
<ellipse fill="none" stroke="black" cx="31" cy="-94" rx="31" ry="22"/>
<text text-anchor="middle" x="31" y="-88.95" font-family="Times,serif" font-size="14.00">M</text>
</g>
<!-- D -->
<g id="node3" class="node">
<title>D</title>
<ellipse fill="none" stroke="black" cx="69" cy="-18" rx="27" ry="18"/>
<text text-anchor="middle" x="69" y="-12.95" font-family="Times,serif" font-size="14.00">D</text>
</g>
<!-- M&#45;&gt;D -->
<g id="edge1" class="edge">
<title>M&#45;&gt;D</title>
<path fill="none" stroke="black" d="M41.38,-72.78C45.79,-64.2 50.98,-54.09 55.67,-44.97"/>
<polygon fill="black" stroke="black" points="59.22,-46.71 60.67,-36.22 52.99,-43.51 59.22,-46.71"/>
</g>
<!-- A -->
<g id="node2" class="node">
<title>A</title>
<ellipse fill="none" stroke="black" cx="107" cy="-94" rx="27" ry="18"/>
<text text-anchor="middle" x="107" y="-88.95" font-family="Times,serif" font-size="14.00">A</text>
</g>
<!-- A&#45;&gt;D -->
<g id="edge2" class="edge">
<title>A&#45;&gt;D</title>
<path fill="none" stroke="black" d="M98.57,-76.58C93.79,-67.28 87.72,-55.45 82.32,-44.93"/>
<polygon fill="black" stroke="black" points="85.09,-43.67 77.41,-36.38 78.86,-46.87 85.09,-43.67"/>
</g>
</g>
</svg>