<?xml version="1.0" encoding="UTF-8" standalone="no"?>
<!DOCTYPE svg PUBLIC "-//W3C//DTD SVG 1.1//EN"
 "http://www.w3.org/Graphics/SVG/1.1/DTD/svg11.dtd">
<!-- Generated by graphviz version 8.1.0 (0)
 -->
<!-- Pages: 1 -->
<svg width="89pt" height="188pt"
 viewBox="0.00 0.00 89.00 188.00" xmlns="http://www.w3.org/2000/svg" xmlns:xlink="http://www.w3.org/1999/xlink">
<g id="graph0" class="graph" transform="scale(1 1) rotate(0) translate(4 184)">
<polygon fill="white" stroke="none" points="-4,4 -4,-184 85,-184 85,4 -4,4"/>
<!-- M -->
<g id="node1" class="node">
<title>M</title>
<ellipse fill="none" stroke="black" cx="27" cy="-90" rx="27" ry="18"/>
<text text-anchor="middle" x="27" y="-84.95" font-family="Times,serif" font-size="14.00">M</text>
</g>
<!-- D -->
<g id="node3" class="node">
<title>D</title>
<ellipse fill="none" stroke="black" cx="54" cy="-18" rx="27" ry="18"/>
<text text-anchor="middle" x="54" y="-12.95" font-family="Times,serif" font-size="14.00">D</text>
</g>
<!-- M&#45;&gt;D -->
<g id="edge3" class="edge">
<title>M&#45;&gt;D</title>
<path fill="none" stroke="black" d="M33.54,-72.05C36.55,-64.23 40.21,-54.75 43.59,-45.98"/>
<polygon fill="black" stroke="black" points="47.19,-47.38 47.52,-36.79 40.66,-44.86 47.19,-47.38"/>
</g>
<!-- A -->
<g id="node2" class="node">
<title>A</title>
<ellipse fill="none" stroke="black" cx="54" cy="-162" rx="27" ry="18"/>
<text text-anchor="middle" x="54" y="-156.95" font-family="Times,serif" font-size="14.00">A</text>
</g>
<!-- A&#45;&gt;M -->
<g id="edge2" class="edge">
<title>A&#45;&gt;M</title>
<path fill="none" stroke="black" d="M47.46,-144.05C44.45,-136.23 40.79,-126.75 37.41,-117.98"/>
<polygon fill="black" stroke="black" points="40.34,-116.86 33.48,-108.79 33.81,-119.38 40.34,-116.86"/>
</g>
<!-- A&#45;&gt;D -->
<g id="edge1" class="edge">
<title>A&#45;&gt;D</title>
<path fill="none" stroke="black" d="M57.65,-143.91C59.68,-133.57 61.98,-120.09 63,-108 64.34,-92.06 64.34,-87.94 63,-72 62.31,-63.78 61.02,-54.92 59.63,-46.85"/>
<polygon fill="black" stroke="black" points="62.91,-46.29 57.65,-37.09 56.02,-47.56 62.91,-46.29"/>
</g>
</g>
</svg>