<?xml version="1.0" encoding="UTF-8" standalone="no"?>
<!DOCTYPE svg PUBLIC "-//W3C//DTD SVG 1.1//EN"
 "http://www.w3.org/Graphics/SVG/1.1/DTD/svg11.dtd">
<!-- Generated by graphviz version 9.0.0 (0)
 -->
<!-- Pages: 1 -->
<svg width="101pt" height="188pt"
 viewBox="0.00 0.00 100.57 188.00" xmlns="http://www.w3.org/2000/svg" xmlns:xlink="http://www.w3.org/1999/xlink">
<g id="graph0" class="graph" transform="scale(1 1) rotate(0) translate(4 184)">
<polygon fill="white" stroke="none" points="-4,4 -4,-184 96.57,-184 96.57,4 -4,4"/>
<!-- C -->
<g id="node1" class="node">
<title>C</title>
<ellipse fill="none" stroke="black" cx="53" cy="-18" rx="27" ry="18"/>
<text text-anchor="middle" x="53" y="-12.95" font-family="Times,serif" font-size="14.00">C</text>
</g>
<!-- G -->
<g id="node2" class="node">
<title>G</title>
<ellipse fill="none" stroke="black" cx="27" cy="-162" rx="27" ry="18"/>
<text text-anchor="middle" x="27" y="-156.95" font-family="Times,serif" font-size="14.00">G</text>
</g>
<!-- G&#45;&gt;C -->
<g id="edge2" class="edge">
<title>G&#45;&gt;C</title>
<path fill="none" stroke="black" d="M21.15,-144.22C15.72,-126.04 9.51,-96.37 17,-72 20.18,-61.65 26.15,-51.51 32.33,-42.91"/>
<polygon fill="black" stroke="black" points="34.99,-45.19 38.33,-35.13 29.45,-40.91 34.99,-45.19"/>
</g>
<!-- P -->
<g id="node3" class="node">
<title>P</title>
<ellipse fill="none" stroke="black" cx="53" cy="-90" rx="27" ry="18"/>
<text text-anchor="middle" x="53" y="-84.95" font-family="Times,serif" font-size="14.00">P</text>
</g>
<!-- G&#45;&gt;P -->
<g id="edge1" class="edge">
<title>G&#45;&gt;P</title>
<path fill="none" stroke="black" d="M33.29,-144.05C36.14,-136.4 39.57,-127.16 42.76,-118.56"/>
<polygon fill="black" stroke="black" points="46.04,-119.8 46.24,-109.21 39.47,-117.36 46.04,-119.8"/>
</g>
<!-- P&#45;&gt;C -->
<g id="edge3" class="edge">
<title>P&#45;&gt;C</title>
<path fill="none" stroke="black" d="M53,-71.7C53,-64.41 53,-55.73 53,-47.54"/>
<polygon fill="black" stroke="black" points="56.5,-47.62 53,-37.62 49.5,-47.62 56.5,-47.62"/>
</g>
<!-- Unobserved_0 -->
<g id="node4" class="node">
<title>Unobserved_0</title>
<ellipse fill="black" stroke="black" cx="78" cy="-162" rx="1.8" ry="1.8"/>
</g>
<!-- Unobserved_0&#45;&gt;C -->
<g id="edge5" class="edge">
<title>Unobserved_0&#45;&gt;C</title>
<path fill="none" stroke="black" stroke-dasharray="5,2" d="M78.39,-160.1C81.34,-153.12 99.8,-107.12 89,-72 85.82,-61.65 79.85,-51.51 73.67,-42.91"/>
<polygon fill="black" stroke="black" points="76.55,-40.91 67.67,-35.13 71.01,-45.19 76.55,-40.91"/>
</g>
<!-- Unobserved_0&#45;&gt;P -->
<g id="edge4" class="edge">
<title>Unobserved_0&#45;&gt;P</title>
<path fill="none" stroke="black" stroke-dasharray="5,2" d="M77.57,-159.79C75.79,-154.81 68.88,-135.46 62.84,-118.55"/>
<polygon fill="black" stroke="black" points="66.23,-117.63 59.57,-109.39 59.63,-119.98 66.23,-117.63"/>
</g>
</g>
</svg>