<?xml version="1.0" encoding="UTF-8" standalone="no"?>
<!DOCTYPE svg PUBLIC "-//W3C//DTD SVG 1.1//EN"
 "http://www.w3.org/Graphics/SVG/1.1/DTD/svg11.dtd">
<!-- Generated by graphviz version 8.1.0 (0)
 -->
<!-- Pages: 1 -->
<svg width="94pt" height="196pt"
 viewBox="0.00 0.00 94.00 196.00" xmlns="http://www.w3.org/2000/svg" xmlns:xlink="http://www.w3.org/1999/xlink">
<g id="graph0" class="graph" transform="scale(1 1) rotate(0) translate(4 192)">
<polygon fill="white" stroke="none" points="-4,4 -4,-192 90,-192 90,4 -4,4"/>
<!-- D -->
<g id="node1" class="node">
<title>D</title>
<ellipse fill="none" stroke="black" cx="31" cy="-18" rx="27" ry="18"/>
<text text-anchor="middle" x="31" y="-12.95" font-family="Times,serif" font-size="14.00">D</text>
</g>
<!-- M -->
<g id="node2" class="node">
<title>M</title>
<ellipse fill="none" stroke="black" cx="59" cy="-90" rx="27" ry="18"/>
<text text-anchor="middle" x="59" y="-84.95" font-family="Times,serif" font-size="14.00">M</text>
</g>
<!-- M&#45;&gt;D -->
<g id="edge1" class="edge">
<title>M&#45;&gt;D</title>
<path fill="none" stroke="black" d="M52.36,-72.41C49.16,-64.39 45.23,-54.57 41.62,-45.54"/>
<polygon fill="black" stroke="black" points="44.55,-44.45 37.59,-36.47 38.05,-47.05 44.55,-44.45"/>
</g>
<!-- A -->
<g id="node3" class="node">
<title>A</title>
<ellipse fill="none" stroke="black" cx="31" cy="-166" rx="27" ry="18"/>
<ellipse fill="none" stroke="black" cx="31" cy="-166" rx="31" ry="22"/>
<text text-anchor="middle" x="31" y="-160.95" font-family="Times,serif" font-size="14.00">A</text>
</g>
<!-- A&#45;&gt;D -->
<g id="edge2" class="edge">
<title>A&#45;&gt;D</title>
<path fill="none" stroke="black" d="M27.29,-143.69C25.62,-133.01 23.83,-119.86 23,-108 21.89,-92.04 21.8,-87.96 23,-72 23.62,-63.8 24.76,-54.95 25.99,-46.87"/>
<polygon fill="black" stroke="black" points="29.59,-47.55 27.75,-37.11 22.68,-46.42 29.59,-47.55"/>
</g>
<!-- A&#45;&gt;M -->
<g id="edge3" class="edge">
<title>A&#45;&gt;M</title>
<path fill="none" stroke="black" d="M38.8,-144.39C41.93,-136.12 45.58,-126.48 48.9,-117.68"/>
<polygon fill="black" stroke="black" points="52.48,-119.12 52.75,-108.53 45.93,-116.64 52.48,-119.12"/>
</g>
</g>
</svg>