<?xml version="1.0" encoding="UTF-8" standalone="no"?>
<!DOCTYPE svg PUBLIC "-//W3C//DTD SVG 1.1//EN"
 "http://www.w3.org/Graphics/SVG/1.1/DTD/svg11.dtd">
<!-- Generated by graphviz version 9.0.0 (0)
 -->
<!-- Pages: 1 -->
<svg width="134pt" height="188pt"
 viewBox="0.00 0.00 134.00 188.00" xmlns="http://www.w3.org/2000/svg" xmlns:xlink="http://www.w3.org/1999/xlink">
<g id="graph0" class="graph" transform="scale(1 1) rotate(0) translate(4 184)">
<polygon fill="white" stroke="none" points="-4,4 -4,-184 130,-184 130,4 -4,4"/>
<!-- Z -->
<g id="node1" class="node">
<title>Z</title>
<ellipse fill="none" stroke="black" cx="27" cy="-162" rx="27" ry="18"/>
<text text-anchor="middle" x="27" y="-156.95" font-family="Times,serif" font-size="14.00">Z</text>
</g>
<!-- Y -->
<g id="node2" class="node">
<title>Y</title>
<ellipse fill="none" stroke="black" cx="63" cy="-90" rx="27" ry="18"/>
<text text-anchor="middle" x="63" y="-84.95" font-family="Times,serif" font-size="14.00">Y</text>
</g>
<!-- Z&#45;&gt;Y -->
<g id="edge3" class="edge">
<title>Z&#45;&gt;Y</title>
<path fill="none" stroke="black" d="M35.35,-144.76C39.58,-136.55 44.81,-126.37 49.58,-117.09"/>
<polygon fill="black" stroke="black" points="52.54,-118.99 54,-108.49 46.32,-115.79 52.54,-118.99"/>
</g>
<!-- W -->
<g id="node3" class="node">
<title>W</title>
<ellipse fill="none" stroke="black" cx="63" cy="-18" rx="27" ry="18"/>
<text text-anchor="middle" x="63" y="-12.95" font-family="Times,serif" font-size="14.00">W</text>
</g>
<!-- Y&#45;&gt;W -->
<g id="edge2" class="edge">
<title>Y&#45;&gt;W</title>
<path fill="none" stroke="black" d="M63,-71.7C63,-64.41 63,-55.73 63,-47.54"/>
<polygon fill="black" stroke="black" points="66.5,-47.62 63,-37.62 59.5,-47.62 66.5,-47.62"/>
</g>
<!-- X -->
<g id="node4" class="node">
<title>X</title>
<ellipse fill="none" stroke="black" cx="99" cy="-162" rx="27" ry="18"/>
<text text-anchor="middle" x="99" y="-156.95" font-family="Times,serif" font-size="14.00">X</text>
</g>
<!-- X&#45;&gt;Y -->
<g id="edge1" class="edge">
<title>X&#45;&gt;Y</title>
<path fill="none" stroke="black" d="M90.65,-144.76C86.42,-136.55 81.19,-126.37 76.42,-117.09"/>
<polygon fill="black" stroke="black" points="79.68,-115.79 72,-108.49 73.46,-118.99 79.68,-115.79"/>
</g>
</g>
</svg>