<?xml version="1.0" encoding="UTF-8" standalone="no"?>
<!DOCTYPE svg PUBLIC "-//W3C//DTD SVG 1.1//EN"
 "http://www.w3.org/Graphics/SVG/1.1/DTD/svg11.dtd">
<!-- Generated by graphviz version 9.0.0 (0)
 -->
<!-- Pages: 1 -->
<svg width="90pt" height="188pt"
 viewBox="0.00 0.00 90.00 188.00" xmlns="http://www.w3.org/2000/svg" xmlns:xlink="http://www.w3.org/1999/xlink">
<g id="graph0" class="graph" transform="scale(1 1) rotate(0) translate(4 184)">
<polygon fill="white" stroke="none" points="-4,4 -4,-184 86,-184 86,4 -4,4"/>
<!-- U -->
<g id="node1" class="node">
<title>U</title>
<ellipse fill="none" stroke="black" cx="27" cy="-162" rx="27" ry="18"/>
<text text-anchor="middle" x="27" y="-156.95" font-family="Times,serif" font-size="14.00">U</text>
</g>
<!-- Y -->
<g id="node2" class="node">
<title>Y</title>
<ellipse fill="none" stroke="black" cx="27" cy="-18" rx="27" ry="18"/>
<text text-anchor="middle" x="27" y="-12.95" font-family="Times,serif" font-size="14.00">Y</text>
</g>
<!-- U&#45;&gt;Y -->
<g id="edge3" class="edge">
<title>U&#45;&gt;Y</title>
<path fill="none" stroke="black" d="M23.75,-143.89C21.95,-133.54 19.91,-120.06 19,-108 17.8,-92.04 17.8,-87.96 19,-72 19.6,-63.99 20.71,-55.35 21.91,-47.43"/>
<polygon fill="black" stroke="black" points="25.35,-48.04 23.51,-37.61 18.45,-46.91 25.35,-48.04"/>
</g>
<!-- X -->
<g id="node3" class="node">
<title>X</title>
<ellipse fill="none" stroke="black" cx="55" cy="-90" rx="27" ry="18"/>
<text text-anchor="middle" x="55" y="-84.95" font-family="Times,serif" font-size="14.00">X</text>
</g>
<!-- U&#45;&gt;X -->
<g id="edge2" class="edge">
<title>U&#45;&gt;X</title>
<path fill="none" stroke="black" d="M33.64,-144.41C36.77,-136.57 40.6,-126.99 44.15,-118.13"/>
<polygon fill="black" stroke="black" points="47.39,-119.46 47.85,-108.88 40.89,-116.86 47.39,-119.46"/>
</g>
<!-- X&#45;&gt;Y -->
<g id="edge1" class="edge">
<title>X&#45;&gt;Y</title>
<path fill="none" stroke="black" d="M48.36,-72.41C45.23,-64.57 41.4,-54.99 37.85,-46.13"/>
<polygon fill="black" stroke="black" points="41.11,-44.86 34.15,-36.88 34.61,-47.46 41.11,-44.86"/>
</g>
</g>
</svg>